<svg xmlns="http://www.w3.org/2000/svg" viewBox="0 0 970 105" role="img" aria-label="magma — wordmark">
  <g transform="translate(0 0)"><path fill="currentColor" fill-rule="evenodd" d="M 17,0 L 161,0 A 17 17 0 0 1 178,17 L 178,105 L 0,105 L 0,17 A 17 17 0 0 1 17,0 Z M 21,25 A 4 4 0 0 1 25,21 L 74.5,21 A 4 4 0 0 1 78.5,25 L 78.5,105 L 21,105 Z M 99.5,25 A 4 4 0 0 1 103.5,21 L 153.0,21 A 4 4 0 0 1 157.0,25 L 157.0,105 L 99.5,105 Z"/></g>
  <g transform="translate(198 0)"><path fill="currentColor" fill-rule="evenodd" d="M 17,0 L 161,0 A 17 17 0 0 1 178,17 L 178,105 L 0,105 L 0,17 A 17 17 0 0 1 17,0 Z M 21,21 L 157,21 L 157,42 L 21,42 Z M 21,67 A 4 4 0 0 1 25,63 L 153,63 A 4 4 0 0 1 157,67 L 157,105 L 21,105 Z"/></g>
  <g transform="translate(396 0)"><path fill="currentColor" fill-rule="evenodd" d="M 17,0 L 161,0 A 17 17 0 0 1 178,17 L 178,88 A 17 17 0 0 1 161,105 L 17,105 A 17 17 0 0 1 0,88 L 0,17 A 17 17 0 0 1 17,0 Z M 24,50 L 152,50 A 4 4 0 0 1 156,54 L 156,76 A 4 4 0 0 1 152,80 L 24,80 A 4 4 0 0 1 20,76 L 20,54 A 4 4 0 0 1 24,50 Z"/></g>
  <g transform="translate(594 0)"><path fill="currentColor" fill-rule="evenodd" d="M 17,0 L 161,0 A 17 17 0 0 1 178,17 L 178,105 L 0,105 L 0,17 A 17 17 0 0 1 17,0 Z M 21,25 A 4 4 0 0 1 25,21 L 74.5,21 A 4 4 0 0 1 78.5,25 L 78.5,105 L 21,105 Z M 99.5,25 A 4 4 0 0 1 103.5,21 L 153.0,21 A 4 4 0 0 1 157.0,25 L 157.0,105 L 99.5,105 Z"/></g>
  <g transform="translate(792 0)"><path fill="currentColor" fill-rule="evenodd" d="M 17,0 L 161,0 A 17 17 0 0 1 178,17 L 178,105 L 0,105 L 0,17 A 17 17 0 0 1 17,0 Z M 21,21 L 157,21 L 157,42 L 21,42 Z M 21,67 A 4 4 0 0 1 25,63 L 153,63 A 4 4 0 0 1 157,67 L 157,105 L 21,105 Z"/></g>
</svg>