<svg xmlns="http://www.w3.org/2000/svg" viewBox="0 0 970 105" role="img" aria-label="magma — wordmark">
  <g transform="translate(0 0)"><path fill="currentColor" fill-rule="evenodd" d="M 14,0 L 164,0 A 14 14 0 0 1 178,14 L 178,105 L 0,105 L 0,14 A 14 14 0 0 1 14,0 Z M 21,25 A 4 4 0 0 1 25,21 L 74.5,21 A 4 4 0 0 1 78.5,25 L 78.5,105 L 21,105 Z M 99.5,25 A 4 4 0 0 1 103.5,21 L 153.0,21 A 4 4 0 0 1 157.0,25 L 157.0,105 L 99.5,105 Z"/></g>
  <g transform="translate(198 0)"><path fill="currentColor" fill-rule="evenodd" d="M 14,0 L 164,0 A 14 14 0 0 1 178,14 L 178,105 L 0,105 L 0,14 A 14 14 0 0 1 14,0 Z M 21,21 L 157,21 L 157,42 L 21,42 Z M 21,67 A 4 4 0 0 1 25,63 L 153,63 A 4 4 0 0 1 157,67 L 157,105 L 21,105 Z"/></g>
  <g transform="translate(396 0)"><path fill="currentColor" fill-rule="evenodd" d="M 14,0 L 164,0 A 14 14 0 0 1 178,14 L 178,17 A 4 4 0 0 1 174,21 L 25,21 A 4 4 0 0 1 21,25 L 21,38 A 4 4 0 0 1 25,42 L 174,42 A 4 4 0 0 1 178,46 L 178,91 A 14 14 0 0 1 164,105 L 14,105 A 14 14 0 0 1 0,91 L 0,14 A 14 14 0 0 1 14,0 Z M 21,42 L 157,42 L 157,84 L 21,84 Z"/></g>
  <g transform="translate(594 0)"><path fill="currentColor" fill-rule="evenodd" d="M 14,0 L 164,0 A 14 14 0 0 1 178,14 L 178,105 L 0,105 L 0,14 A 14 14 0 0 1 14,0 Z M 21,25 A 4 4 0 0 1 25,21 L 74.5,21 A 4 4 0 0 1 78.5,25 L 78.5,105 L 21,105 Z M 99.5,25 A 4 4 0 0 1 103.5,21 L 153.0,21 A 4 4 0 0 1 157.0,25 L 157.0,105 L 99.5,105 Z"/></g>
  <g transform="translate(792 0)"><path fill="currentColor" fill-rule="evenodd" d="M 14,0 L 164,0 A 14 14 0 0 1 178,14 L 178,105 L 0,105 L 0,14 A 14 14 0 0 1 14,0 Z M 21,21 L 157,21 L 157,42 L 21,42 Z M 21,67 A 4 4 0 0 1 25,63 L 153,63 A 4 4 0 0 1 157,67 L 157,105 L 21,105 Z"/></g>
</svg>