<svg id="svg" version="1.1" viewBox="0 0 300 58.16666666666666" width="300" height="58.16666666666666" xmlns="http://www.w3.org/2000/svg"><svg xmlns="http://www.w3.org/2000/svg"><defs><clipPath id="clip-1"><rect x="0" y="0" transform="scale(0.14648,0.14652)" width="2048" height="397" fill="none"/></clipPath></defs><g clip-path="url(#clip-1)" fill="none" fill-rule="nonzero" stroke="none" stroke-width="1" stroke-linecap="butt" stroke-linejoin="miter" stroke-miterlimit="10" stroke-dasharray="" stroke-dashoffset="0" font-family="none" font-weight="none" font-size="none" text-anchor="none" style="mix-blend-mode: normal"><path d="M0,0h300v26.55477v5.09303v26.51887h-300z" fill="#ffffff"/><path d="M300,31.64779c-0.09082,0.03619 -0.19629,0.0778 -0.31494,0.12512c-0.25488,1.18238 -0.39697,2.34205 -0.6665,3.53952c-2.95459,13.11461 -15.48193,22.7524 -29.04785,21.90305c-7.75195,-0.41874 -15.00732,-3.9483 -20.12402,-9.78958c-4.68311,-5.31104 -7.4707,-13.11929 -7.01953,-20.1853c0.43066,-7.65016 3.91406,-14.80682 9.6709,-19.86294c15.36475,-13.53225 39.70313,-6.88909 45.93896,12.6113c0.31494,0.98371 0.50537,1.8965 0.74414,2.8824c0.24902,1.03396 0.20215,2.9813 0.81885,3.6834z" fill="#226675"/><path d="M269.91943,2.60783c14.38037,-0.83808 26.72754,10.11759 27.60938,24.49725c0.88184,14.37977 -10.03418,26.76297 -24.40723,27.68924c-14.4375,0.93037 -26.88281,-10.04525 -27.76904,-24.48743c-0.88623,-14.44233 10.12646,-26.85732 24.56689,-27.69905z" fill="#ffffff"/><path d="M268.75342,5.05792c13.09131,-1.42507 24.84668,8.06339 26.21924,21.1625c1.37256,13.09922 -8.16064,24.81944 -21.26221,26.14013c-13.02832,1.31337 -24.6665,-8.15667 -26.03027,-21.18219c-1.36523,-13.02567 8.05664,-24.70338 21.07324,-26.12044z" fill="#226675"/><path d="M264.09814,9.59255c1.06494,1.05884 6.55518,15.11481 7.37842,17.2299c2.23828,-5.84099 4.65088,-11.61399 7.23193,-17.31166c1.07373,1.77394 2.27197,4.88783 3.03809,6.89294c4.22021,11.04053 10.13965,21.34599 0.2915,31.43139c0.26514,-0.75822 1.12207,-2.70189 1.19238,-3.36927c0.51563,-4.86944 -2.62646,-11.3844 -4.51025,-15.77079c-0.91846,1.49153 -1.83545,3.25133 -2.5957,4.8249c-1.30957,2.83024 -2.53711,7.31318 -2.13281,10.36803c0.19482,1.47277 0.59326,2.63669 1.05615,4.0409c-1.15723,-1.01198 -2.62354,-3.11595 -3.57422,-4.41451c-1.41064,1.86441 -2.10937,2.76665 -3.93457,4.27093c0.05127,-0.12674 0.10254,-0.25406 0.15234,-0.38182c2.6543,-6.84828 -0.68994,-12.42012 -3.44531,-18.65363c-1.64502,2.85207 -5.02295,11.00918 -4.88818,14.36262c0.01758,0.45215 0.97998,3.3492 1.17334,4.14639l-0.15674,0.13963c-0.03369,-0.00557 -0.20068,-0.04 -0.22119,-0.0589c-10.78271,-9.55369 -1.25977,-24.30678 2.72168,-34.76091c0.38525,-1.00992 0.78076,-2.02121 1.22314,-2.98615z" fill="#ffffff"/><path d="M188.54883,16.45985c0.43506,-0.01407 0.86865,-0.02344 1.30371,-0.02842l21.04834,0.01436c3.91553,-0.01201 7.97461,-0.14373 11.88428,0.10241c1.42676,0.08981 2.63672,1.33168 2.82861,2.75288c0.37207,2.75713 0.23584,5.64334 0.2168,8.43724l-0.06299,13.22449l-4.64941,0.05289c-0.0835,-3.23448 0.00439,-6.5006 -0.08057,-9.77156c-0.61816,-0.50943 -28.31982,-0.17597 -32.2251,-0.15018c-0.13916,3.28517 -0.0791,6.61562 -0.03223,9.90342l-4.74609,0.01934c-0.12012,-6.58441 -0.06885,-13.55195 0.06299,-20.14882c0.05859,-2.92313 1.65088,-4.07943 4.45166,-4.40807z" fill="#226675"/><path d="M201.06445,22.04868c4.26123,-0.02608 8.521,-0.02388 12.78076,0.00659c1.93945,0.00835 4.03711,-0.05743 5.95752,0.10974c1.33887,0.11648 1.27441,2.8698 1.27295,3.72237c-3.92725,0.09055 -8.02881,0.03795 -11.96924,0.04249c-6.29736,0.00513 -14.15332,0.20996 -20.37012,-0.08498c0.02637,-1.86031 -0.04248,-2.28623 1.12646,-3.7086c3.71484,-0.0693 7.48242,-0.06271 11.20166,-0.08762z" fill="#ffffff"/><path d="M50.10967,16.46263c0.47432,-0.01451 0.94878,-0.02593 1.42324,-0.03399c6.77783,-0.10784 13.87075,0.05802 20.69399,0.02652l8.41597,-0.04234c3.3687,-0.00982 7.37402,-0.87646 7.56709,3.63183c0.2981,6.95626 -0.06782,14.00703 -0.09126,20.98366l-4.89038,0.01333l-0.00234,-8.55182l-0.01816,-1.539l-19.15181,-0.04176c-4.0771,0.00015 -8.59204,-0.06784 -12.64219,0.09597c-0.1125,3.33059 -0.14048,6.66338 -0.08364,9.99529l-4.48784,0.01949c0.09507,-6.81707 -0.14355,-13.76118 0.01113,-20.58206c0.0498,-2.19964 1.05967,-3.49923 3.2562,-3.97511z" fill="#226675"/><path d="M52.05718,22.1382c9.62417,-0.32439 19.41592,0.12 29.05371,-0.04601c0.53247,-0.00923 1.85859,0.27897 1.95527,0.92612c0.1106,0.73946 0.55972,1.98807 -0.33896,2.26703l-19.4499,0.04732c-3.7229,0.00161 -8.24575,0.10593 -11.90273,-0.09846c0.0252,-1.17095 -0.07646,-2.19334 0.68262,-3.09602z" fill="#ffffff"/><path d="M95.49155,16.44271c4.73745,-0.14578 10.23047,-0.01026 15.00073,0.01216l23.41802,0.04996c-0.02241,1.81591 0.00015,3.67915 0.00073,5.49931c-4.85801,0.21289 -34.2104,-0.39002 -35.88662,0.33025c-1.26006,1.41724 -0.65405,9.32996 -0.58608,11.44594c0.00645,0.20087 0.74927,1.28655 0.92578,1.54764c4.17847,0.28175 10.34443,0.10315 14.64858,0.10696c4.94839,-0.00308 10.27251,0.0923 15.1916,-0.06476l1.0604,-1.67584l0.04321,-5.70517l4.62627,0.01846c-0.04893,2.01723 0.70972,11.61692 -1.65044,12.66993c-1.17905,0.52599 -6.54287,0.36365 -8.22744,0.36101l-10.68794,0.00132c-5.6748,0.00147 -11.74409,0.24834 -17.37744,-0.03209c-0.51079,-0.02549 -0.98145,-0.07414 -1.44404,-0.31296c-0.77988,-0.40277 -1.21685,-1.1941 -1.46543,-2.00419c-0.61436,-2.0014 -0.57935,-15.72742 -0.329,-18.24939c0.0791,-0.7966 0.25049,-1.63629 0.63428,-2.3463c0.49146,-0.90898 1.13672,-1.36186 2.10483,-1.65226z" fill="#226675"/><path d="M3.31025,16.44593c0.11855,-0.00689 0.23722,-0.01143 0.35596,-0.01363c7.80587,-0.103 15.76304,0.0148 23.58311,0.00879l7.7603,-0.02447c3.65098,-0.0107 6.86294,-0.82811 7.33521,3.97453c0.25752,2.62014 0.15059,5.16145 0.13931,7.78789l-0.00249,12.78744c-1.54351,0.08337 -3.52354,0.03868 -5.09985,0.04732l-0.01436,-10.93416c-0.00337,-1.73973 0.27393,-6.53738 -0.75688,-7.73485c-0.93428,-0.44057 -11.08608,-0.21787 -12.8417,-0.20864c-0.03647,0.93653 -0.02388,1.98924 -0.03457,2.93632c-0.02959,5.3106 -0.03047,10.6215 -0.00249,15.93225l-4.68091,0.01377l-0.04409,-18.93113c-2.99971,-0.23545 -9.19837,-0.00264 -12.38331,0.04806c-0.38544,0.36834 -0.71934,0.84408 -1.04074,1.27366c-0.06914,5.86502 -0.09419,11.73047 -0.07518,17.59593l-4.69952,0.02359c0.01175,-3.919 -0.46426,-19.96699 0.52866,-22.54229c0.37263,-0.96642 1.03407,-1.6313 1.97356,-2.04038z" fill="#226675"/><path d="M141.78647,16.46586c0.70488,-0.02579 1.46499,-0.02227 2.17383,-0.02916l21.28872,-0.00689c3.76611,-0.00879 7.75488,-0.06813 11.49316,0.08762c3.99609,0.1663 3.01758,8.14201 3,10.93695c-0.04395,4.50843 -0.04541,9.01701 -0.00293,13.52543l-4.52344,0.05304l-0.00732,-10.94486c-0.01025,-1.87877 0.10693,-3.89658 -0.14062,-5.75791c-0.0791,-0.59852 -0.22119,-1.39659 -0.66064,-1.83232c-0.80127,-0.79397 -10.99658,-0.36922 -12.74121,-0.35926c-0.09082,1.10956 -0.06885,2.61442 -0.08203,3.75373l-0.00293,15.05623l-4.69629,0.09113l-0.0249,-18.93918c-3.97412,-0.14564 -8.76562,-0.00044 -12.79614,0.02637c-1.13115,2.09517 -0.80391,5.75396 -0.79512,8.1785l0.02095,10.72069c-1.53311,0.03004 -3.1459,0.0063 -4.68589,0.0082c0.09492,-7.03333 -0.18823,-14.35383 0.16304,-21.39493c0.09023,-1.80595 1.22358,-2.92753 3.01978,-3.17338z" fill="#226675"/></g></svg></svg>