<svg xmlns="http://www.w3.org/2000/svg" viewBox="0 0 1280 260" role="img" aria-label="magma">
  <defs><style>.cutout { fill: var(--canvas-bg, #080808); }</style>
    <symbol id="word" viewBox="0 0 970 105"><g transform="translate(0 0)"><path fill="currentColor" fill-rule="evenodd" d="M 17,0 L 161,0 A 17 17 0 0 1 178,17 L 178,105 L 0,105 L 0,17 A 17 17 0 0 1 17,0 Z M 21,25 A 4 4 0 0 1 25,21 L 74.5,21 A 4 4 0 0 1 78.5,25 L 78.5,105 L 21,105 Z M 99.5,25 A 4 4 0 0 1 103.5,21 L 153.0,21 A 4 4 0 0 1 157.0,25 L 157.0,105 L 99.5,105 Z"/></g>
  <g transform="translate(198 0)"><path fill="currentColor" fill-rule="evenodd" d="M 17,0 L 161,0 A 17 17 0 0 1 178,17 L 178,105 L 0,105 L 0,17 A 17 17 0 0 1 17,0 Z M 21,21 L 157,21 L 157,42 L 21,42 Z M 21,67 A 4 4 0 0 1 25,63 L 153,63 A 4 4 0 0 1 157,67 L 157,105 L 21,105 Z"/></g>
  <g transform="translate(396 0)"><path fill="currentColor" fill-rule="evenodd" d="M 17,0 L 161,0 A 17 17 0 0 1 178,17 L 178,88 A 17 17 0 0 1 161,105 L 17,105 A 17 17 0 0 1 0,88 L 0,17 A 17 17 0 0 1 17,0 Z M 25,21 L 153,21 A 4 4 0 0 1 157,25 L 157,38 A 4 4 0 0 1 153,42 L 25,42 A 4 4 0 0 1 21,38 L 21,25 A 4 4 0 0 1 25,21 Z M 21,42 L 157,42 L 157,84 L 21,84 Z"/></g>
  <g transform="translate(594 0)"><path fill="currentColor" fill-rule="evenodd" d="M 17,0 L 161,0 A 17 17 0 0 1 178,17 L 178,105 L 0,105 L 0,17 A 17 17 0 0 1 17,0 Z M 21,25 A 4 4 0 0 1 25,21 L 74.5,21 A 4 4 0 0 1 78.5,25 L 78.5,105 L 21,105 Z M 99.5,25 A 4 4 0 0 1 103.5,21 L 153.0,21 A 4 4 0 0 1 157.0,25 L 157.0,105 L 99.5,105 Z"/></g>
  <g transform="translate(792 0)"><path fill="currentColor" fill-rule="evenodd" d="M 17,0 L 161,0 A 17 17 0 0 1 178,17 L 178,105 L 0,105 L 0,17 A 17 17 0 0 1 17,0 Z M 21,21 L 157,21 L 157,42 L 21,42 Z M 21,67 A 4 4 0 0 1 25,63 L 153,63 A 4 4 0 0 1 157,67 L 157,105 L 21,105 Z"/></g></symbol>
    <symbol id="symbol" viewBox="0 0 512 512">
  <circle cx="256" cy="256" r="246" fill="none" stroke="currentColor" stroke-width="9"/>
  <circle cx="256" cy="256" r="220" fill="currentColor"/>
  <g transform="translate(61 58) scale(1.882 1.882)"><g transform="translate(-4.816305 213.113695) scale(0.1 -0.1)">
    <path class="cutout" d="M1368 1803 c-58 -127 -151 -348 -209 -496 -35 -91 -58 -137 -67 -135 -7 2 -51 95 -96 208 -87 213 -174 419 -199 467 -15 28 -15 28 -41 -31 -14 -32 -26 -60 -26 -61 0 -2 -41 -97 -91 -212 -286 -651 -303 -924 -76 -1196 49 -59 55 -55 28 18 -50 134 -23 259 131 603 58 128 65 132 97 60 162 -370 186 -474 148 -654 -16 -75 -10 -74 62 12 67 79 65 79 130 -6 62 -82 65 -84 46 -29 -49 138 6 407 129 633 56 102 72 118 85 85 5 -13 26 -62 46 -109 116 -262 168 -496 130 -587 -23 -54 -12 -51 33 9 214 286 172 601 -191 1421 -34 78 -34 78 -69 0z"/>
  </g></g>
</symbol>
  </defs>
  <g transform="translate(0 78)"><use href="#word" width="970" height="105"/></g>
  <g transform="translate(1010 5)"><use href="#symbol" width="250" height="250"/></g>
</svg>