<svg xmlns="http://www.w3.org/2000/svg" viewBox="0 0 220 215" role="img" aria-label="magma — monograma M-chama">
  <g fill="currentColor" transform="translate(-4.816305 213.113695) scale(0.1 -0.1)">
    <path d="M1368 1803 c-58 -127 -151 -348 -209 -496 -35 -91 -58 -137 -67 -135 -7 2 -51 95 -96 208 -87 213 -174 419 -199 467 -15 28 -15 28 -41 -31 -14 -32 -26 -60 -26 -61 0 -2 -41 -97 -91 -212 -286 -651 -303 -924 -76 -1196 49 -59 55 -55 28 18 -50 134 -23 259 131 603 58 128 65 132 97 60 162 -370 186 -474 148 -654 -16 -75 -10 -74 62 12 67 79 65 79 130 -6 62 -82 65 -84 46 -29 -49 138 6 407 129 633 56 102 72 118 85 85 5 -13 26 -62 46 -109 116 -262 168 -496 130 -587 -23 -54 -12 -51 33 9 214 286 172 601 -191 1421 -34 78 -34 78 -69 0z"/>
  </g>
</svg>